<?xml version="1.0" encoding="utf-8"?>
<!-- Generator: Adobe Illustrator 15.1.0, SVG Export Plug-In . SVG Version: 6.00 Build 0)  -->
<!DOCTYPE svg PUBLIC "-//W3C//DTD SVG 1.1//EN" "http://www.w3.org/Graphics/SVG/1.1/DTD/svg11.dtd">
<svg version="1.1" id="Layer_1" xmlns="http://www.w3.org/2000/svg" xmlns:xlink="http://www.w3.org/1999/xlink" x="0px" y="0px"
	 width="364.255px" height="330.333px" viewBox="0 0 364.255 330.333" enable-background="new 0 0 364.255 330.333"
	 xml:space="preserve">
<path fill="#B3B4B4" d="M166.491,39.929v16.737c0,0,1.016,5.153,16.812,5.167v0c0.01,0,0.02,0,0.029,0c0.011,0,0.021,0,0.031,0v0
	c15.795-0.014,16.811-5.167,16.811-5.167V39.929H166.491z"/>
<g>
	<path fill="#999999" d="M110.136,112.006c-0.396,1.172-0.617,2.389-0.617,3.66L110.136,112.006z"/>
	<path fill="#999999" d="M251.707,112.006l0.617,3.66C252.324,114.396,252.104,113.178,251.707,112.006z"/>
	<path fill="#999999" d="M251.707,112.006l-6.934-41.09l4.278-40.873c0,0,2.263-28.516-67.932-28.625V1.417
		c-0.067,0-0.132,0.001-0.199,0.001c-0.067,0-0.132-0.001-0.198-0.001v0.002c-70.194,0.109-67.932,28.625-67.932,28.625
		l4.278,40.873l-6.934,41.09c6.692-19.78,66.612-25.681,70.785-26.068C185.095,86.325,245.015,92.227,251.707,112.006z"/>
</g>
<path fill="#B3B4B4" d="M220.785,146.417v-41.75l0.764-13.625c0,0,2.633-10.875-40.715-12.688
	c-43.348,1.812-40.715,12.688-40.715,12.688l0.764,13.625v41.75l-10.514,32.252v26.643l8.43,22.855
	c0-12.215,27.814-13.438,42.035-13.438s42.035,1.223,42.035,13.438l8.43-22.855v-26.643L220.785,146.417z"/>
<path fill="#CCCCCC" d="M211.202,101.167c0,0,0.001,42.333,3.834,58.417s12.416,34.5,10.166,46.667s-9.417,24.417-8.5,33.667
	l2.417,3l9.333-32l1.917-24.75l-2.25-14.834l-15.688-67.604L211.202,101.167z"/>
<path fill="#E6E6E6" d="M222.869,92.772c0,0-0.435,40.061,8.782,58.895c9.217,18.834,7.287,24.13,5.903,31.939
	c-1.384,7.811-7.327,34.061-6.757,42.727c0.57,8.668-7.346,15.584-11.679,16.584c0,0-3.083-8.584,4.167-23.75
	s2.25-29.416-1.417-41.166s-9.438-21.792-9.438-74.271L222.869,92.772z"/>
<linearGradient id="SVGID_1_" gradientUnits="userSpaceOnUse" x1="768.2217" y1="203.7583" x2="773.2599" y2="180.8571" gradientTransform="matrix(-1 0 0 1 1015.3477 0)">
	<stop  offset="0" style="stop-color:#666766"/>
	<stop  offset="0.3842" style="stop-color:#BBBBBB"/>
	<stop  offset="1" style="stop-color:#000000"/>
</linearGradient>
<ellipse fill="url(#SVGID_1_)" cx="243.938" cy="189.268" rx="5.232" ry="16.043"/>
<linearGradient id="SVGID_2_" gradientUnits="userSpaceOnUse" x1="787.2539" y1="177.8228" x2="775.9139" y2="206.9827" gradientTransform="matrix(-1 0 0 1 1015.3477 0)">
	<stop  offset="0" style="stop-color:#666766"/>
	<stop  offset="0.3842" style="stop-color:#BBBBBB"/>
	<stop  offset="1" style="stop-color:#000000"/>
</linearGradient>
<path fill="url(#SVGID_2_)" d="M226.286,216.082c4.63-10.312,1.712-16.042,1.712-26.813s6.741-13.293,6.741-13.293l8.861-2.496
	c-2.459,1.31-4.333,7.871-4.333,15.789c0,8.277,2.045,15.087,4.671,15.947c-1.096,0.033-3.994,0.974-10.381,7.543
	C224.84,221.728,226.286,216.082,226.286,216.082z"/>
<path fill="#CCCCCC" d="M150.466,101.167c0,0-0.001,42.333-3.834,58.417s-12.416,34.5-10.166,46.667s9.417,24.417,8.5,33.667
	l-2.417,3l-9.333-32l-1.917-24.75l2.25-14.834l15.688-67.604L150.466,101.167z"/>
<path fill="#E6E6E6" d="M138.799,92.772c0,0,0.435,40.061-8.782,58.895c-9.217,18.834-7.287,24.13-5.903,31.939
	c1.384,7.811,7.327,34.061,6.757,42.727c-0.57,8.668,7.346,15.584,11.679,16.584c0,0,3.083-8.584-4.167-23.75
	s-2.25-29.416,1.417-41.166s9.438-21.792,9.438-74.271L138.799,92.772z"/>
<path fill="#FFFFFF" d="M180.834,78.354c0,0-42.035,0.25-42.035,14c0,0-0.055,7.75,10.438,11.375l1.229-2.562
	c0,0-9.322-3.342-9.322-10.342s15.655-11.283,39.69-12.033c24.035,0.75,39.69,5.033,39.69,12.033s-9.322,10.342-9.322,10.342
	l1.229,2.562c10.492-3.625,10.438-11.375,10.438-11.375C222.869,78.604,180.834,78.354,180.834,78.354z"/>
<linearGradient id="SVGID_3_" gradientUnits="userSpaceOnUse" x1="114.542" y1="203.7583" x2="119.5803" y2="180.8571">
	<stop  offset="0" style="stop-color:#666766"/>
	<stop  offset="0.3842" style="stop-color:#BBBBBB"/>
	<stop  offset="1" style="stop-color:#000000"/>
</linearGradient>
<ellipse fill="url(#SVGID_3_)" cx="117.729" cy="189.268" rx="5.232" ry="16.043"/>
<linearGradient id="SVGID_4_" gradientUnits="userSpaceOnUse" x1="133.5737" y1="177.8228" x2="122.2338" y2="206.9827">
	<stop  offset="0" style="stop-color:#666766"/>
	<stop  offset="0.3842" style="stop-color:#BBBBBB"/>
	<stop  offset="1" style="stop-color:#000000"/>
</linearGradient>
<path fill="url(#SVGID_4_)" d="M135.382,216.082c-4.63-10.312-1.712-16.042-1.712-26.813s-6.741-13.293-6.741-13.293l-8.861-2.496
	c2.459,1.31,4.333,7.871,4.333,15.789c0,8.277-2.045,15.087-4.671,15.947c1.096,0.033,3.994,0.974,10.381,7.543
	C136.828,221.728,135.382,216.082,135.382,216.082z"/>
<path fill="#CCCCCC" d="M137.108,49.5v49.167c0,0,0.19,5.333-4.143,10.833s-3.833,13.333-3.833,13.333v28.5l-5.167,4.167
	l-2.667-45.333l8.667-9.833l2.148-45L137.108,49.5z"/>
<path fill="#CCCCCC" d="M224.656,49.5v49.167c0,0-0.19,5.333,4.143,10.833s3.833,13.333,3.833,13.333v28.5l5.167,4.167l2.667-45.333
	l-8.667-9.833l-2.148-45L224.656,49.5z"/>
<path fill="#E6E6E6" d="M252.324,30.043V75.5c0,0,5.975,8.833,5.975,14s0,8,0,8s5,7.333,5,11.333s0,11.333,0,11.333
	s2.667,14.333-25.5,35.333l-1.167-38.167c0,0,0.001-5.333-5.166-12c0,0-1.453-0.667-1.453-10.667s-0.362-39.333-0.362-39.333
	S248.466,45.5,252.324,30.043z"/>
<path fill="#E6E6E6" d="M109.218,30.043V75.5c0,0-5.975,8.833-5.975,14s0,8,0,8s-5,7.333-5,11.333s0,11.333,0,11.333
	s-2.667,14.333,25.5,35.333l1.167-38.167c0,0-0.001-5.333,5.166-12c0,0,1.453-0.667,1.453-10.667s0.362-39.333,0.362-39.333
	S113.076,45.5,109.218,30.043z"/>
<path fill="#FFFFFF" d="M251.239,25c-6.927-15.5-29.806-25-70.405-25c-40.601,0-63.479,9.5-70.405,25
	c-6.928,15.5,21.588,30.333,21.588,30.333l4.995-5.833c-22.717-10.667-20.461-21.833-20.461-21.833
	c0-23.833,64.283-24.5,64.283-24.5s64.283,0.667,64.283,24.5c0,0,2.255,11.167-20.461,21.833l4.994,5.833
	C229.65,55.333,258.166,40.5,251.239,25z"/>
<path fill="#FFFFFF" d="M202.799,36.833c0-18-19.5-29.5-19.5-29.5s-19.5,11.5-19.5,29.5c0,0-2,8.667,19.5,8.667
	S202.799,36.833,202.799,36.833z"/>
<path fill="#CCCCCC" d="M86.666,318.333c0,6.628-5.372,12-12,12H12c-6.628,0-12-5.372-12-12v-62.667c0-6.627,5.372-12,12-12h62.666
	c6.628,0,12,5.373,12,12V318.333z"/>
<path fill="#CCCCCC" d="M364.255,318.333c0,6.628-5.372,12-12,12h-62.666c-6.628,0-12-5.372-12-12v-62.667c0-6.627,5.372-12,12-12
	h62.666c6.628,0,12,5.373,12,12V318.333z"/>
</svg>
